<svg width="28" height="23" viewBox="0 0 28 23" fill="none" xmlns="http://www.w3.org/2000/svg">
<path fill-rule="evenodd" clip-rule="evenodd" d="M7.62624 3.00004C6.47424 3.00004 5.39424 3.44537 4.58624 4.25471C2.90891 5.93471 2.90891 8.66937 4.58757 10.352L13.9996 19.78L23.4129 10.352C25.0916 8.66937 25.0916 5.93471 23.4129 4.25471C21.7969 2.63471 18.9489 2.63737 17.3329 4.25471L14.9436 6.64804C14.4422 7.15071 13.5569 7.15071 13.0556 6.64804L10.6662 4.25337C9.85824 3.44537 8.77957 3.00004 7.62624 3.00004ZM13.9996 23C13.6462 23 13.3062 22.86 13.0569 22.608L2.69957 12.2347C-0.0150925 9.51471 -0.0150925 5.08937 2.69957 2.36937C4.01157 1.05737 5.76091 0.333374 7.62624 0.333374C9.49157 0.333374 11.2422 1.05737 12.5529 2.36937L13.9996 3.81871L15.4462 2.37071C16.7582 1.05737 18.5076 0.333374 20.3742 0.333374C22.2382 0.333374 23.9889 1.05737 25.2996 2.36937C28.0156 5.08937 28.0156 9.51471 25.3009 12.2347L14.9436 22.6094C14.6929 22.86 14.3542 23 13.9996 23ZM7.62612 3.00004C6.47412 3.00004 5.39412 3.44537 4.58612 4.25471C2.90879 5.93471 2.90879 8.66937 4.58745 10.352L13.9995 19.78L23.4128 10.352C25.0915 8.66937 25.0915 5.93471 23.4128 4.25471C21.7968 2.63471 18.9488 2.63737 17.3328 4.25471L14.9435 6.64804C14.4421 7.15071 13.5568 7.15071 13.0555 6.64804L10.6661 4.25337C9.85812 3.44537 8.77945 3.00004 7.62612 3.00004Z" fill="#071435"/>
</svg>
