<svg width="12" height="12" viewBox="0 0 12 12" fill="none" xmlns="http://www.w3.org/2000/svg">
<path fill-rule="evenodd" clip-rule="evenodd" d="M11.1598 0.840443C10.9285 0.608443 10.5532 0.608443 10.3218 0.840443L0.840504 10.3218C0.724504 10.4378 0.666504 10.5891 0.666504 10.7411C0.666504 10.8924 0.724504 11.0444 0.840504 11.1598C1.07184 11.3911 1.4465 11.3911 1.6785 11.1598L11.1598 1.67844C11.3912 1.44644 11.3912 1.07178 11.1598 0.840443ZM8.6667 10.6666C8.11537 10.6666 7.6667 10.218 7.6667 9.66664C7.6667 9.11531 8.11537 8.66664 8.6667 8.66664C9.21804 8.66664 9.6667 9.11531 9.6667 9.66664C9.6667 10.218 9.21804 10.6666 8.6667 10.6666ZM8.6667 7.33331C7.38004 7.33331 6.33337 8.37998 6.33337 9.66664C6.33337 10.9533 7.38004 12 8.6667 12C9.95337 12 11 10.9533 11 9.66664C11 8.37998 9.95337 7.33331 8.6667 7.33331ZM3.33337 1.99998C3.8847 1.99998 4.33337 2.44864 4.33337 2.99998C4.33337 3.55131 3.8847 3.99998 3.33337 3.99998C2.78204 3.99998 2.33337 3.55131 2.33337 2.99998C2.33337 2.44864 2.78204 1.99998 3.33337 1.99998ZM3.33337 5.33331C4.62004 5.33331 5.6667 4.28664 5.6667 2.99998C5.6667 1.71331 4.62004 0.666643 3.33337 0.666643C2.0467 0.666643 1.00004 1.71331 1.00004 2.99998C1.00004 4.28664 2.0467 5.33331 3.33337 5.33331Z" fill="#071435"/>
</svg>
